<?xml version="1.0" encoding="UTF-8"?>
<svg id="Layer_2" data-name="Layer 2" xmlns="http://www.w3.org/2000/svg" viewBox="0 0 1026.13 135.53">
  <defs>
    <style>
      .cls-1 {
        fill: #1ba880;
      }

      .cls-1, .cls-2, .cls-3 {
        stroke-width: 0px;
      }

      .cls-2 {
        fill: #d1a739;
      }

      .cls-3 {
        fill: #414042;
      }
    </style>
  </defs>
  <g id="Layer_1-2" data-name="Layer 1">
    <g>
      <g>
        <path class="cls-3" d="M313.98,108.1V0h18.72l48.4,63.25,14.04,20.17h1.29l-.81-19.52V0h17.42v108.1h-18.71l-48.73-63.08-13.55-19.04h-1.29l.64,18.72v63.41h-17.43Z"/>
        <path class="cls-3" d="M425.22,88.74c0-12.42,10-18.88,25.82-20.65l36.46-3.87v-4.68c0-13.23-5.81-17.91-21.14-17.91s-22.1,4.84-22.1,16.62v.64h-17.26v-.64c0-18.23,15.17-31.95,40.66-31.95s36.95,13.87,36.95,33.08v48.73h-15.97v-20.01h-1.13c-4.2,13.55-16.94,21.62-35.17,21.62-16.62,0-27.11-7.74-27.11-20.97ZM457.01,97.13c18.23,0,30.49-6.78,30.49-22.59l-31.46,3.55c-9.03,1.13-13.39,3.23-13.39,9.52s4.36,9.52,14.36,9.52Z"/>
        <path class="cls-3" d="M519.04,18.55V0h17.43v18.55h-17.43ZM519.04,108.1V27.91h17.43v80.19h-17.43Z"/>
        <path class="cls-3" d="M535.53,135.53v-13.39h5.49c6.78,0,10.49-2.74,10.49-10V27.91h17.43v81.16c0,20.01-11.45,26.46-28.4,26.46h-5ZM551.5,18.55V0h17.43v18.55h-17.43Z"/>
        <path class="cls-3" d="M580.04,88.74c0-12.42,10-18.88,25.81-20.65l36.46-3.87v-4.68c0-13.23-5.81-17.91-21.14-17.91s-22.1,4.84-22.1,16.62v.64h-17.26v-.64c0-18.23,15.17-31.95,40.66-31.95s36.95,13.87,36.95,33.08v48.73h-15.97v-20.01h-1.13c-4.2,13.55-16.94,21.62-35.17,21.62-16.62,0-27.1-7.74-27.1-20.97ZM611.83,97.13c18.23,0,30.49-6.78,30.49-22.59l-31.46,3.55c-9.03,1.13-13.39,3.23-13.39,9.52s4.36,9.52,14.36,9.52Z"/>
        <path class="cls-3" d="M738.48,108.1V27.91h15.97v21.62h1.13c2.42-12.91,11.13-23.23,27.59-23.23,18.23,0,26.14,13.07,26.14,28.24v10.49h-17.26v-7.1c0-11.45-4.84-16.78-16.78-16.78-13.71,0-19.36,7.58-19.36,21.94v45.01h-17.43Z"/>
        <path class="cls-3" d="M818.24,18.55V0h17.43v18.55h-17.43ZM818.24,108.1V27.91h17.43v80.19h-17.43Z"/>
        <path class="cls-3" d="M850.33,135.53V27.91h15.97v22.27h1.45c3.23-14.84,14.52-23.88,33.4-23.88,24.85,0,38.88,16.94,38.88,41.79s-13.71,41.63-38.72,41.63c-18.07,0-29.69-9.52-32.91-24.2h-.65v50.02h-17.43ZM895.35,93.9c17.26,0,27.27-6.62,27.27-25.81s-10.16-25.82-26.94-25.82c-17.91,0-27.91,8.39-27.91,25.65v1.45c0,16.46,10.49,24.52,27.59,24.52Z"/>
        <path class="cls-3" d="M948.2,80.99v-.48h17.43v1.29c0,10.49,6.29,13.87,23.07,13.87,15.65,0,20.33-3.23,20.33-10.33,0-6.62-3.87-8.71-15.33-10.33l-21.94-2.9c-15.17-1.94-24.36-8.39-24.36-21.78s12.75-24.04,37.43-24.04,39.37,9.84,39.37,28.88v.48h-17.26v-.97c0-9.52-4.84-14.52-22.59-14.52-14.68,0-19.85,3.23-19.85,10.81,0,6.29,3.23,8.55,15.33,10.17l18.55,2.58c19.04,2.42,27.75,8.87,27.75,22.1,0,15.01-14.84,23.88-37.43,23.88-25.82,0-40.5-10.16-40.5-28.72Z"/>
        <path class="cls-3" d="M702.86.57l19.04,15.64h27.51V.57h-46.55ZM647.11,16.21h42.6v92.45h17.26V16.21l-4.11-15.64h-55.75v15.64Z"/>
      </g>
      <g>
        <polygon class="cls-1" points="135.38 135.52 0 135.52 27.73 107.8 135.38 .15 135.38 135.52"/>
        <polygon class="cls-1" points="270.49 .15 270.49 135.53 242.77 107.8 135.12 .15 270.49 .15"/>
        <path class="cls-2" d="M216.36,135.53h-31.31C162.49,75.51,134.06-.24,135.42,0l80.94,135.53Z"/>
      </g>
    </g>
  </g>
</svg>